<svg xmlns="http://www.w3.org/2000/svg" width="479.447" height="479.404" viewBox="0 0 479.447 479.404">
  <g id="globe" transform="translate(0 -0.022)">
    <g id="Group_1" data-name="Group 1">
      <path id="Path_1" data-name="Path 1" d="M239.446.022A240.077,240.077,0,0,0,213.719,1.4a226.283,226.283,0,0,0-23.2,3.7q-2.216.464-4.432.976A239.734,239.734,0,0,0,67.831,72.3q-4.5,4.608-8.8,9.488C-28.029,181.737-17.581,333.337,82.368,420.4c95.688,83.349,239.723,77.8,328.719-12.656q4.5-4.608,8.8-9.488a239.6,239.6,0,0,0,59.56-158.232C479.447,107.472,371.995.021,239.446.022ZM78.5,84.3c1.264-1.312,2.576-2.568,3.864-3.84,1.488-1.464,2.968-2.936,4.488-4.352,1.336-1.248,2.712-2.448,4.08-3.664,1.544-1.368,3.08-2.736,4.664-4.056,1.392-1.176,2.824-2.3,4.248-3.44,1.6-1.28,3.2-2.56,4.848-3.792,1.456-1.1,2.936-2.16,4.424-3.2,1.656-1.184,3.32-2.4,5.008-3.5,1.512-1.024,3.04-2.016,4.576-3,1.712-1.1,3.432-2.176,5.168-3.2q2.345-1.4,4.72-2.752,2.656-1.512,5.336-2.952,2.4-1.28,4.8-2.5c1.824-.92,3.664-1.808,5.512-2.68,1.6-.76,3.264-1.52,4.912-2.24,1.88-.8,3.784-1.6,5.688-2.4,1.656-.68,3.3-1.344,4.976-1.984,1.936-.736,3.9-1.424,5.856-2.112,1.672-.584,3.344-1.168,5.04-1.72,1.992-.64,4-1.232,6.016-1.816,1.688-.488,3.36-.992,5.056-1.448.648-.168,1.3-.3,1.944-.472A198.5,198.5,0,0,0,132.591,106.2,268.7,268.7,0,0,1,77.775,85.1C78.039,84.821,78.263,84.541,78.5,84.3Zm-11.5,12.88a277.951,277.951,0,0,0,60.712,24.16,415.133,415.133,0,0,0-16.152,110.68H15.631A223.516,223.516,0,0,1,66.991,97.181Zm0,285.68a223.545,223.545,0,0,1-51.36-134.84h95.92A415.092,415.092,0,0,0,127.7,358.7,278.143,278.143,0,0,0,66.991,382.861Zm114.736,73.568c-1.616-.408-3.288-.936-4.952-1.424-2.024-.592-4.056-1.184-6.056-1.832-1.688-.544-3.352-1.128-5.016-1.712-1.968-.68-3.936-1.376-5.88-2.12-1.664-.632-3.3-1.3-4.952-1.968-1.912-.8-3.824-1.6-5.72-2.4q-2.448-1.08-4.872-2.224c-1.864-.88-3.72-1.776-5.6-2.7-1.6-.8-3.2-1.6-4.8-2.472-1.808-.968-3.6-1.96-5.392-2.984-1.6-.888-3.12-1.8-4.664-2.728-1.76-1.056-3.488-2.144-5.216-3.256-1.52-.968-3.04-1.952-4.536-2.96-1.7-1.152-3.392-2.352-5.064-3.552-1.464-1.048-2.928-2.1-4.368-3.2-1.656-1.248-3.28-2.536-4.9-3.832-1.416-1.128-2.824-2.248-4.208-3.408-1.6-1.328-3.144-2.712-4.7-4.088-1.36-1.208-2.728-2.4-4.056-3.632-1.528-1.424-3.008-2.9-4.5-4.368-1.288-1.272-2.6-2.528-3.864-3.832-.232-.248-.456-.5-.688-.744a268.507,268.507,0,0,1,54.816-21.1,198.551,198.551,0,0,0,51.128,83.024C183.031,456.741,182.375,456.605,181.727,456.429Zm49.72,6.96c-34.232-4.864-64.24-40.592-83.12-93.352a406.551,406.551,0,0,1,83.12-9.784V463.389Zm0-119.136A421.294,421.294,0,0,0,143.3,354.765a400.211,400.211,0,0,1-15.752-106.744h103.9v96.232Zm0-112.232h-103.9A400.13,400.13,0,0,1,143.3,125.277a421.433,421.433,0,0,0,88.144,10.512Zm0-112.232a406.124,406.124,0,0,1-83.12-9.784c18.88-52.76,48.888-88.488,83.12-93.352V119.789ZM411.9,97.181a223.545,223.545,0,0,1,51.36,134.84h-95.92a415.093,415.093,0,0,0-16.152-110.68A278.241,278.241,0,0,0,411.9,97.181ZM297.1,23.6c1.68.416,3.352.944,5.016,1.432,2.024.592,4.056,1.184,6.056,1.832,1.688.544,3.352,1.128,5.016,1.712,1.968.68,3.936,1.376,5.88,2.12,1.664.632,3.3,1.3,4.952,1.968,1.912.8,3.824,1.6,5.72,2.4q2.448,1.08,4.872,2.224c1.864.88,3.72,1.776,5.6,2.7,1.6.8,3.2,1.6,4.8,2.472,1.808.968,3.6,1.96,5.392,2.984,1.6.888,3.12,1.8,4.664,2.728,1.76,1.056,3.488,2.144,5.216,3.256,1.52.968,3.04,1.952,4.536,2.96,1.7,1.152,3.384,2.344,5.056,3.544,1.472,1.048,2.936,2.1,4.384,3.2,1.648,1.24,3.264,2.528,4.888,3.824,1.408,1.12,2.824,2.24,4.208,3.408,1.6,1.328,3.144,2.712,4.7,4.088,1.36,1.208,2.728,2.4,4.056,3.632,1.528,1.424,3.008,2.9,4.5,4.368,1.288,1.272,2.6,2.528,3.864,3.832.232.248.456.5.688.744a268.507,268.507,0,0,1-54.816,21.1,198.54,198.54,0,0,0-51.192-83.016C295.8,23.293,296.455,23.429,297.1,23.6Zm-49.656-6.952c34.232,4.864,64.24,40.592,83.12,93.352a406.551,406.551,0,0,1-83.12,9.784V16.653Zm0,119.136a421.293,421.293,0,0,0,88.144-10.512,400.211,400.211,0,0,1,15.752,106.744h-103.9Zm0,112.232h103.9a400.131,400.131,0,0,1-15.752,106.744h0a421.427,421.427,0,0,0-88.144-10.512Zm0,215.368V360.253a406.126,406.126,0,0,1,83.12,9.784C311.687,422.8,281.679,458.525,247.447,463.389ZM400.4,395.741c-1.264,1.3-2.568,2.56-3.856,3.832-1.488,1.464-2.976,2.944-4.5,4.368-1.328,1.24-2.7,2.4-4.056,3.64-1.552,1.376-3.1,2.752-4.68,4.08-1.4,1.168-2.824,2.3-4.248,3.432-1.6,1.28-3.2,2.56-4.848,3.792-1.456,1.1-2.936,2.16-4.424,3.2-1.656,1.184-3.32,2.4-5.008,3.5-1.512,1.024-3.04,2.016-4.576,2.992q-2.568,1.656-5.176,3.2c-1.6.936-3.128,1.848-4.7,2.752q-2.656,1.512-5.344,2.952-2.4,1.279-4.8,2.5c-1.824.92-3.664,1.808-5.512,2.68-1.6.76-3.264,1.52-4.912,2.24-1.88.8-3.784,1.6-5.688,2.4-1.656.672-3.3,1.344-4.968,1.976-1.952.744-3.912,1.44-5.88,2.12-1.664.584-3.328,1.168-5.016,1.712-2,.648-4,1.24-6.04,1.824-1.672.5-3.352.992-5.04,1.448-.648.168-1.3.3-1.944.472A198.5,198.5,0,0,0,346.3,373.837a268.7,268.7,0,0,1,54.816,21.1C400.855,395.221,400.631,395.5,400.4,395.741Zm11.5-12.88a277.952,277.952,0,0,0-60.712-24.16,415.133,415.133,0,0,0,16.152-110.68h95.92A223.512,223.512,0,0,1,411.9,382.861Z" fill="#a3a3a3"/>
    </g>
  </g>
</svg>
