<svg xmlns="http://www.w3.org/2000/svg" width="512" height="504.869" viewBox="0 0 512 504.869">
  <g id="libra" transform="translate(0.001 -3.566)">
    <g id="Group_78" data-name="Group 78">
      <path id="Path_150" data-name="Path 150" d="M510,299.709a7.847,7.847,0,0,0-5.823-2.459H480.733L436.211,152.86c1.434.086,2.844.139,4.215.139,10.455,0,19.051-2.585,24.967-9.051,11.546-12.622,14.362-28.06,8.146-44.644a66.668,66.668,0,0,0-7.993-14.873,32.621,32.621,0,0,0-4.222-5.354,7.772,7.772,0,0,0-10.184-1.031,7.615,7.615,0,0,0-1.065,11.28,42.622,42.622,0,0,1,2.878,3.639,15.12,15.12,0,0,1,.824,14.752c-3.346,6.313-11.353,8.768-21.969,6.734-8.943-1.712-20.586-8.119-34.069-15.537-27.158-14.944-62.906-34.594-114.162-40a34.556,34.556,0,1,0-55.149.013A247.747,247.747,0,0,0,169.3,72.7a7.6,7.6,0,0,0-4.423,9.952v0a7.611,7.611,0,0,0,9.694,4.312A234.1,234.1,0,0,1,217,75.8a50.493,50.493,0,0,0-11.2,25.166c-17.826,1.824-40.554,9.86-64.454,18.313-32.552,11.514-73.065,25.843-83.53,14.4a28.288,28.288,0,0,1-6.244-10.526c5.684,4.716,15.576,9.267,31.467,6.227,11.305-2.166,23.325-8.78,38.543-17.155,6.482-3.567,13.64-7.506,21.384-11.419a7.6,7.6,0,0,0,3.414-10.067h0a7.617,7.617,0,0,0-10.308-3.49c-7.952,4.02-15.229,8.024-21.823,11.652-13.483,7.42-25.129,13.829-34.07,15.542-9.785,1.876-17.518-.129-21.218-5.492-3.1-4.5-3.077-10.743.05-15.963,1.313-1.828,2.339-3.032,2.715-3.461.051-.054.1-.106.148-.16.031-.034.063-.069.093-.1A7.6,7.6,0,1,0,50.716,79.042l-.029.031A32.592,32.592,0,0,0,46.331,84.6c-3.868,5.486-8.768,14.087-10.459,24.221-2.162,12.948,1.55,25.1,10.735,35.131C52.523,150.414,61.116,153,71.572,153c1.372,0,2.782-.054,4.216-.14L31.267,297.25H7.824A7.843,7.843,0,0,0,2,299.709a7.612,7.612,0,0,0-.887,9.11,116.329,116.329,0,0,0,198.851,0,7.609,7.609,0,0,0-.886-9.11,7.847,7.847,0,0,0-5.823-2.459H169.813L121.966,142.075c7.963-2.63,16.163-5.526,24.458-8.46,21.464-7.593,43.55-15.4,59.512-17.357a50.842,50.842,0,0,0,26.5,36.806V456.733H190.013a44.147,44.147,0,0,0-44.1,44.094,7.608,7.608,0,0,0,7.6,7.608h204.95a7.608,7.608,0,0,0,7.6-7.608,44.149,44.149,0,0,0-44.1-44.094H279.551v-35.99a7.6,7.6,0,0,0-15.208,0v35.99h-16.7V158.189a50.175,50.175,0,0,0,16.7,0V385.256a7.6,7.6,0,0,0,15.208,0V153.066a50.838,50.838,0,0,0,26.5-36.806c15.96,1.958,38.046,9.763,59.511,17.356,8.3,2.935,16.495,5.831,24.459,8.462L342.178,297.252H318.735a7.843,7.843,0,0,0-5.823,2.459,7.612,7.612,0,0,0-.887,9.11,116.329,116.329,0,0,0,198.851,0A7.6,7.6,0,0,0,510,299.709ZM178.8,312.457a101.1,101.1,0,0,1-156.512,0ZM153.9,297.25H47.181L92.45,150.433c4.81-1.031,9.829-2.339,15-3.834ZM256,18.772a19.348,19.348,0,0,1,0,38.7v0h-.051A19.347,19.347,0,0,1,256,18.772Zm15.951,453.169h50.028a28.945,28.945,0,0,1,27.875,21.286H162.142a28.944,28.944,0,0,1,27.875-21.286h81.934ZM256,143.682a35.5,35.5,0,1,1,35.5-35.5A35.543,35.543,0,0,1,256,143.682Zm114.642-24.4c-23.9-8.455-46.627-16.489-64.452-18.313A50.505,50.505,0,0,0,295,75.8c41.581,6.823,71.875,23.481,95.411,36.432,15.215,8.372,27.232,14.985,38.541,17.151,12.77,2.444,23.881.153,31.491-6.171a27.966,27.966,0,0,1-6.269,10.468C443.7,145.125,403.194,130.793,370.642,119.278ZM404.549,146.6c5.171,1.5,10.19,2.8,15,3.834L464.819,297.25H358.1Zm6.91,202.948A100.461,100.461,0,0,1,333.2,312.458H489.714A100.458,100.458,0,0,1,411.459,349.549Z" fill="#23aa9c"/>
    </g>
  </g>
</svg>
